<svg width="33" height="32" viewBox="-2 0 26 20" fill="#858584" stroke-width="0.75" xmlns="http://www.w3.org/2000/svg">
  <defs>
    <filter id="f1" x="0" y="0">
      <feGaussianBlur in="SourceGraphic" stdDeviation="55" />
    </filter>
  </defs>
<path transform="matrix(1,0,0,-1,1,19)" d="M 8.4926 13.5692 C 8.5119 14.7821 9.0278 15.8893 9.8399 16.6918 C 10.6551 17.4971 11.7709 18 12.9861 18 C 13.0093 18 13.0326 17.9986 13.0552 17.9966 C 13.4867 17.9909 13.9113 17.9232 14.315 17.799 C 14.7257 17.6726 15.1183 17.4878 15.4777 17.2497 C 15.8397 17.0096 16.1634 16.7199 16.439 16.3916 C 16.4517 16.3766 16.4636 16.3607 16.4747 16.3451 C 16.628 16.1578 16.7658 15.9588 16.8868 15.7499 L 19.7391 15.7499 C 20.1532 15.7499 20.4891 15.414 20.4891 14.9998 C 20.4891 14.7926 20.4052 14.6052 20.2694 14.4694 L 17.4365 11.6362 C 17.3047 10.1225 16.9041 8.6564 16.2658 7.3035 C 15.5871 5.8657 14.6387 4.5544 13.458 3.4475 C 12.274 2.3377 10.9035 1.4749 9.4263 .8915 C 7.9517 .3087 6.3624 .002 4.7395 .0028 L 4.7395 0 C 1.3499 0 .3852 1.4318 .3827 1.4355 C .14 1.7702 .2151 2.2388 .5499 2.4814 C .6177 2.5305 .6911 2.5668 .7668 2.5903 C 1.0945 2.7204 3.0719 3.5478 4.3957 5.0545 C 2.7315 6.232 -1.0035 9.7138 .254 16.6314 C .3266 17.0374 .7152 17.3075 1.1211 17.2349 C 1.2773 17.2071 1.4131 17.1323 1.5174 17.0277 L 1.5197 17.03 C 1.5293 17.0203 4.6253 13.9255 8.4892 12.9246 L 8.4892 13.4997 C 8.4892 13.5232 8.4906 13.5462 8.4926 13.5692 Z M 10.8887 15.6254 C 10.347 15.09 10.0023 14.3566 9.987 13.5567 L 9.9893 13.4997 L 9.9893 11.9996 L 9.9879 11.9996 C 9.9879 11.9591 9.9845 11.918 9.9777 11.8766 C 9.9099 11.469 9.5238 11.1934 9.1162 11.2612 C 5.8768 11.8012 3.026 13.7982 1.5426 15.0111 C .9904 8.5204 5.5585 6.0574 5.8144 5.9244 C 5.8442 5.91 5.8737 5.8932 5.9023 5.8742 C 6.247 5.6463 6.3414 5.1817 6.1135 4.837 C 5.142 3.3795 3.6139 2.3632 2.5319 1.7776 C 3.0098 1.6254 3.7142 1.5001 4.7395 1.5001 L 4.7395 1.4973 C 6.1637 1.4967 7.5662 1.7688 8.8753 2.2861 C 10.1832 2.8029 11.393 3.5629 12.4325 4.5371 C 13.4751 5.5145 14.3124 6.6728 14.9119 7.9424 C 15.5049 9.1996 15.8652 10.5673 15.961 11.9781 C 15.9627 12.168 16.0359 12.3571 16.1807 12.5019 L 17.9283 14.2498 L 16.4296 14.2498 L 16.4296 14.2517 C 16.1413 14.252 15.8664 14.4201 15.7439 14.701 C 15.6342 14.9522 15.4933 15.1843 15.3261 15.391 L 15.2904 15.4307 C 15.1067 15.6495 14.8912 15.8426 14.6517 16.0013 C 14.4096 16.1617 14.1474 16.2856 13.8756 16.3692 C 13.6052 16.4523 13.3248 16.4979 13.0439 16.5022 L 12.9861 16.4999 C 12.1776 16.4999 11.4335 16.1637 10.8887 15.6254 "/>
</svg>
